<svg xmlns="http://www.w3.org/2000/svg" xmlns:xlink="http://www.w3.org/1999/xlink" width="43" height="41" viewBox="0 0 43 41"><defs><path id="w2tla" d="M423.454 82.828a22.45 22.45 0 0 1-3.871 2.69c.265-.21-.567-1.087-.315-1.312 6.3-5.486 7.741-12.549 5.197-18.762-.343-.839.38-1.174.384-1.944 5.803 5.491 5.177 13.605-1.395 19.328"/><path id="w2tlb" d="M424.847 63.504c-2.13-2.017-5.117-3.68-8.995-4.742l-.05-.012.054.013c1.273.335 1.372 1.81 2.249 2.555 1.877 1.595 2.389 3.637 2.582 6.335.288 4.013.265 7.984-2.662 11.52-1.537 1.855-3.477 3.542-5.77 4.533-.169.076-.337.151-.512.222-.027.007-.047.02-.075.028a19.36 19.36 0 0 1-3.68 1.056c-4.75.899-11.029.524-18.628-1.894 3.034 2.343 6.286 3.903 9.566 4.803a27.763 27.763 0 0 0 10.647.783c.007 0 .02 0 .027-.007.51-.054 1.014-.13 1.51-.218a27.77 27.77 0 0 0 5.681-1.628h.007a26.152 26.152 0 0 0 2.783-1.328c.265-.212.53-.43.782-.654 7.15-6.227 8.77-14.675 4.484-21.365"/><path id="w2tlc" d="M411.744 83.924c8.884-3.625 9.361-12.81-.962-17.98-7.499-3.758-4.186-9.722 5.075-7.184 10.345 2.72 7.285 20.761-4.113 25.164"/><path id="w2tld" d="M425.535 53.798c-9.762-3.108-17.335-2.84-22.305-.837-.024.009-.049.018-.074.029-7.387 3.015-8.962 9.875-3.345 15.072-1.48-1.229-3.17-2.535-3.9-4.197-.934-2.122-1.215-4.748-.841-6.956.506-2.985 2.39-5.678 5.492-7.323 1.234-.655 3.093-1.124 4.765-1.376 6.566-.785 13.86.674 20.208 5.588"/><path id="w2tle" d="M401.464 78.648c-.642-.208-1.364-.307-1.957-.545-7.54-3.036-11.568-8.685-11.423-14.26.103-3.96 2.422-7.972 6.219-11.278 1.074-.934 2.49-1.724 3.794-2.5.004-.003.007-.003.01-.003a27.73 27.73 0 0 1 7.22-1.852 14.64 14.64 0 0 0-1.746.368c-9.757 2.657-10.342 14.029-3.77 19.485 0 0 .004 0 .007.003 1.136 1.05 2.566 2.036 4.3 2.902 6.8 3.41 4.709 8.634-2.654 7.68"/><path id="w2tlf" d="M401.458 78.653a17.722 17.722 0 0 1-2.42-.494c-14.458-3.957-16.579-16.252-7.599-24.071 1.853-1.613 4.116-2.987 6.653-4.018a24.78 24.78 0 0 0-3.583 2.573c-9.561 8.326-7.657 21.275 6.95 26.01"/></defs><g><g transform="translate(-386 -48)"><g><use fill="#e8e7e3" xlink:href="#w2tla"/></g><g><use fill="#fffffe" xlink:href="#w2tlb"/></g><g><use fill="#cfcfca" xlink:href="#w2tlc"/></g><g><use fill="#e8e7e3" xlink:href="#w2tld"/></g><g><use fill="#fffffe" xlink:href="#w2tle"/></g><g><use fill="#cfcfca" xlink:href="#w2tlf"/></g></g></g></svg>